<?xml version="1.0" standalone="no"?>
<!DOCTYPE svg PUBLIC "-//W3C//DTD SVG 20010904//EN"
 "http://www.w3.org/TR/2001/REC-SVG-20010904/DTD/svg10.dtd">
<svg version="1.0" xmlns="http://www.w3.org/2000/svg"
 width="512.000000pt" height="512.000000pt" viewBox="0 0 512.000000 512.000000"
 preserveAspectRatio="xMidYMid meet">
<metadata>
Created by potrace 1.14, written by Peter Selinger 2001-2017
</metadata>
<g transform="translate(0.000000,512.000000) scale(0.100000,-0.100000)"
fill="#000000" stroke="none">
<path d="M2527 5064 c-1 -1 -42 -5 -92 -8 -141 -11 -183 -16 -290 -37 -256
-51 -525 -146 -708 -250 -40 -23 -86 -50 -104 -60 -202 -115 -436 -313 -617
-519 -227 -261 -405 -590 -505 -935 -37 -127 -45 -148 -65 -164 -9 -7 -16 -19
-16 -27 0 -7 -6 -19 -12 -26 -26 -27 -73 -141 -98 -237 -17 -65 -19 -102 -16
-256 4 -172 6 -201 19 -235 3 -8 8 -28 11 -43 7 -29 59 -151 76 -177 6 -8 14
-24 19 -36 5 -11 17 -28 26 -38 9 -9 30 -62 46 -119 114 -399 311 -753 583
-1042 61 -65 61 -64 46 -115 -17 -58 -13 -179 8 -247 65 -207 246 -332 466
-321 97 5 175 32 242 83 l33 25 108 -44 c163 -67 430 -139 561 -152 18 -2 41
-5 50 -8 75 -22 507 -23 618 -2 12 2 45 7 74 11 54 7 76 10 121 20 15 4 48 -3
78 -15 154 -60 338 -1 431 138 30 44 49 59 120 96 241 123 427 255 623 446 98
94 230 246 284 328 16 23 53 59 82 78 122 83 219 212 268 359 23 69 27 98 29
215 1 74 7 155 14 180 14 50 18 69 26 120 3 19 8 38 10 42 2 3 7 28 10 55 3
26 7 55 9 63 26 94 26 629 0 702 -2 7 -7 31 -9 53 -52 428 -323 975 -649 1313
-68 71 -173 169 -215 202 -22 17 -32 33 -32 53 0 15 -9 56 -21 90 -53 157
-186 250 -350 243 -41 -2 -91 -10 -112 -19 -36 -16 -41 -16 -75 2 -88 44 -385
142 -481 157 -14 2 -46 9 -71 14 -25 5 -63 12 -85 15 -23 3 -50 7 -61 9 -53
10 -398 27 -407 20z"/>
</g>
</svg>
